# xmcd
#
# Track frame offsets:
#	150
#	16208
#	34935
#	53331
#	67805
#	84636
#	98821
#	113539
#	127239
#	139356
#	156110
#	169690
#	207661
#
# Disc length: 2776 seconds
#
# Revision: 0
# Processed by: cddbd v1.5.2PL0 Copyright (c) Steve Scherf et al.
# Submitted via: dBpowerAMP V4.0
#
DISCID=ac0ad60d
DTITLE=Travis Nelson - Turn Out The Stars
DYEAR=2009
DGENRE=Country
TTITLE0=Heaven Sent
TTITLE1=Wanna Be Me
TTITLE2=Turn Out The Stars
TTITLE3=The Hat
TTITLE4=Little Things
TTITLE5=Cowboy Way
TTITLE6=Shape I'm In
TTITLE7=Moment Of Glory
TTITLE8=Little Stray
TTITLE9=San Antonio Way
TTITLE10=Heartbreak Express
TTITLE11=Hero To Her
TTITLE12=DATA
EXTD=
EXTT0=
EXTT1=
EXTT2=
EXTT3=
EXTT4=
EXTT5=
EXTT6=
EXTT7=
EXTT8=
EXTT9=
EXTT10=
EXTT11=
EXTT12=
PLAYORDER=
